<?xml version="1.0" encoding="utf-8"?>
<!-- Generator: Adobe Illustrator 27.1.1, SVG Export Plug-In . SVG Version: 6.00 Build 0)  -->
<svg version="1.1" id="Шар_1" xmlns="http://www.w3.org/2000/svg" xmlns:xlink="http://www.w3.org/1999/xlink" x="0px" y="0px"
	 viewBox="0 0 25 25" style="enable-background:new 0 0 25 25;" xml:space="preserve">
<style type="text/css">
	.st0{fill:#0000D3;}
</style>
<g id="Profile">
	<path id="Vector" class="st0" d="M16,13l-0.4-0.6c-0.2,0.2-0.4,0.4-0.3,0.7c0,0.3,0.2,0.5,0.5,0.6L16,13z M9,13l0.2,0.7
		c0.3-0.1,0.5-0.3,0.5-0.6c0-0.3-0.1-0.6-0.3-0.7L9,13z M18.4,7.4c0,2.1-1.1,4-2.8,5l0.8,1.3c2.1-1.3,3.6-3.6,3.6-6.3H18.4z
		 M12.5,1.5c3.3,0,5.9,2.6,5.9,5.9h1.5c0-4.1-3.3-7.4-7.4-7.4V1.5z M6.6,7.4c0-3.2,2.7-5.9,5.9-5.9V0C8.4,0,5.1,3.3,5.1,7.4H6.6z
		 M9.4,12.4c-1.7-1-2.8-2.9-2.8-5H5.1c0,2.7,1.4,5,3.6,6.3L9.4,12.4z M8.8,12.3C4.2,13.7,0.6,17.8,0,22.7l1.5,0.2
		C2,18.5,5.1,15,9.3,13.7L8.8,12.3z M0,22.7C-0.1,24,0.9,25,2.1,25v-1.5c-0.4,0-0.7-0.3-0.7-0.6L0,22.7z M2.1,25h20.7v-1.5H2.1V25z
		 M22.9,25c1.2,0,2.3-1,2.1-2.3l-1.5,0.2c0,0.3-0.2,0.6-0.7,0.6V25z M25,22.7c-0.6-4.9-4.1-9-8.8-10.4l-0.4,1.4
		c4.1,1.2,7.2,4.8,7.8,9.2L25,22.7z"/>
</g>
</svg>
