<?xml version="1.0" encoding="UTF-8"?>
<svg id="_Слой_2" data-name="Слой 2" xmlns="http://www.w3.org/2000/svg" viewBox="0 0 618.4 512.8">
  <defs>
    <style>
      .cls-1 {
        fill: #fff;
      }

      .cls-2 {
        fill: #3500d3;
      }
    </style>
  </defs>
  <g id="Finished">
    <g id="Logo">
      <g id="Lines">
        <path class="cls-1" d="M159.45,249.65l-34.75-57.33c2.49,4.11,37.36,61.67,38.83,64.09h.01s-4.09-6.76-4.09-6.76Zm-37.06-61.15h-.01c.78,1.28,1.55,2.55,2.32,3.82l-2.31-3.82Z"/>
        <path class="cls-1" d="M225.13,388.7l7.79-4.29s-7.79,4.3-7.79,4.29Zm-3.38-6.13l7.54-4.15h0s-7.54,4.15-7.54,4.15Zm-22.4,12.35l-4.08,2.25h.01c2.31-1.28,4.62-2.54,6.93-3.82-.95,.52-1.9,1.04-2.86,1.57Z"/>
        <path class="cls-1" d="M242.49,133.65c-1.09-.6-2.19-1.21-3.29-1.81,2.05,1.14,8.19,4.53,3.29,1.81Zm48.89,26.96c-.34-.19-.69-.38-1.04-.57,.61,.35,2.64,1.46,1.04,.57Z"/>
        <g>
          <path class="cls-1" d="M496,188.5l-1.15,1.91c.38-.64,.77-1.27,1.16-1.9h-.01Z"/>
          <path class="cls-1" d="M501.09,319.21l62.81-62.81-62.81-62.81C569.52,80.69,607.03,18.76,618.4,0c-20.1,10.92-159.62,87.99-200.44,110.46L309.2,1.69l-108.78,108.78C154.25,85.02-.71-.52,0,0,11.37,18.75,48.61,80.25,117.3,193.59l-62.81,62.81,62.81,62.81C49.2,431.6,11.33,494.11,0,512.8c16.26-8.81,101.31-55.83,200.43-110.47l108.77,108.77,108.77-108.76c111.76,61.61,181.56,100.2,200.43,110.46-11.23-18.52-49.3-81.36-117.31-193.59Zm52.91-62.81l-56.64,56.64-34.33-56.64,34.33-56.64,56.64,56.64ZM411.58,113.98l-26.12,14.4-62.31-102.84,88.43,88.44Zm-32.25,17.79l-70.13,38.67c-23.35-12.88-46.77-25.77-70.14-38.68,25.21-41.57,62.02-102.36,70.14-115.74l70.13,115.75ZM295.23,25.56c-12,19.81-40.98,67.62-62.3,102.82-8.65-4.76-17.42-9.6-26.12-14.4L295.23,25.56ZM64.39,256.4l56.64-56.64,34.33,56.64-34.33,56.64-56.64-56.64Zm134.96,138.53c-68.29,37.68-151.09,83.33-179.86,99.2,17.66-29.13,99.5-164.24,139.96-230.98l69.84,115.26h0c-9.84,5.43-19.93,11-29.94,16.52Zm7.46,3.88c8.71-4.79,17.58-9.72,26.11-14.4,20.8,34.32,41.55,68.55,62.31,102.82l-88.42-88.42Zm47.34,7.14h0C191.78,303.02,68.55,99.68,19.49,18.67c62.81,34.65,224.61,123.86,289.71,159.77,80.61-44.44,213.09-117.52,289.71-159.77-17.49,28.87-99.5,164.23-139.97,230.98h0c-35.76,59.03-123.12,203.19-149.74,247.12-.85-1.4-37.67-62.16-55.05-90.82Zm69.01,81.29c20-33.01,41.31-68.16,62.31-102.83,0-.01,26.1,14.41,26.11,14.41l-88.42,88.42Zm99.96-90.05c-1.5-.82-31.59-17.43-34.02-18.77l69.84-115.27c40.54,66.88,122.22,201.69,139.97,230.98-31.53-17.38-120.84-66.64-175.79-96.94Z"/>
        </g>
        <path class="cls-1" d="M242.49,133.65c-1.09-.6-2.19-1.21-3.29-1.81,2.5,1.39,9.02,4.97,3.29,1.81Zm3.23,1.78c-.5-.25,2.57,1.43,3.32,1.84-1.1-.61-2.21-1.22-3.32-1.84Zm9.41,5.19c-1.46-.79,1.73,.95,2.36,1.31-.78-.44-1.57-.87-2.36-1.31Zm3.02,1.67c-1.65-.9,1.6,.89,2.23,1.23-.74-.41-1.48-.82-2.23-1.23Zm5.87,3.24c1.92,1.05,3.75,2.08,5.63,3.1-1.83-1.01-3.71-2.05-5.63-3.1Zm9.29,5.12c.57,.32,1.12,.62,1.69,.93-.56-.31-1.12-.62-1.69-.93Zm18.07,9.96c-.34-.19-.69-.38-1.04-.57,.61,.35,2.64,1.46,1.04,.57Zm12.14,6.69c-.15-.08-.31-.17-.47-.25,.21,.11,.94,.51,.47,.25Zm3.73,2.06c-.18-.09-.37-.21-.56-.3,.15,.08,.65,.37,.56,.3Zm.53,.29c-.15-.08-.31-.16-.47-.25,.18,.09,.34,.2,.52,.28-.02-.01-.03-.02-.05-.03Z"/>
        <path class="cls-1" d="M163.54,256.4l-4.09-6.75h-.01s4.09,6.76,4.09,6.76l71.89,118.62-71.88-118.63Z"/>
        <path class="cls-1" d="M245.4,135.26c.11,.06,.22,.12,.32,.18-.09-.07-.22-.11-.32-.18Zm9.14,5.04c.2,.11,.39,.22,.59,.33-.18-.12-.39-.21-.59-.33Zm2.95,1.63c.22,.12,.44,.24,.66,.37-.21-.14-.44-.24-.66-.37Zm45.56,25.12c.16,.09,.32,.17,.47,.26-.13-.1-.31-.17-.47-.26Zm4,2.2c-.68-.36-.08-.04,.2,.12-.05-.05-.13-.07-.2-.12Zm.26,.15c.16,.09,.32,.17,.47,.26-.13-.1-.31-.16-.47-.26Z"/>
      </g>
      <g id="TriangleWCircles">
        <polygon id="Triangle" class="cls-2" points="309.2 382.57 493.03 193.41 125.36 193.41 309.2 382.57"/>
        <g id="Circles">
          <circle class="cls-1" cx="213.29" cy="228.6" r="14.89"/>
          <circle class="cls-1" cx="230.9" cy="256.77" r="5.57"/>
        </g>
      </g>
    </g>
  </g>
</svg>